<svg xmlns="http://www.w3.org/2000/svg" version="1.1" xmlns:xlink="http://www.w3.org/1999/xlink" viewBox="0 0 19.9055977821166 12.311300114887494"><g transform="matrix(1,0,0,1,1.2970034809020508,9.932796633985443)"><rect width="19.9055977821166" height="19.9055977821166" x="-1.2970034809020525" y="-13.729945467599997" fill="#ffffff"></rect><g clip-path="url(#SvgjsClipPath1002)"><g clip-path="url(#SvgjsClipPath10007e8ac008-e935-4daf-beca-5206ceb5340b)"><path d=" M 16.066506248063355 -0.45235844242051115 C 15.970145085005967 -0.6216946555009706 15.865333789188156 -0.8266844989126705 15.80547868213521 -0.9314957947304823 C 15.521287375087507 -1.429683007737177 15.364774609090823 -1.7041640745075632 14.731755891775371 -1.7377792956202835 C 14.69143245123443 -1.741151936327288 14.585435171871303 -1.867051502060348 14.515313894754161 -1.9504039081049918 C 14.414764727302355 -2.0698546883103592 14.300836182979893 -2.2051679984344084 14.165634058813218 -2.3004173019180563 C 13.502595133006807 -2.7673983228884698 13.217588462271692 -3.5282438291981295 12.887551478800138 -4.409058983514239 L 12.828252301534057 -4.5674619107862675 C 12.55803336312967 -5.284944893720097 12.185931025784985 -5.177687506840066 11.886877862434954 -5.0914072039179175 C 11.758643391597044 -5.0543452181266115 11.637673069974234 -5.019544013468575 11.52845139784726 -5.044041986076632 C 11.245816694202787 -5.107640353694503 11.125142868466302 -5.456949569777539 10.98545624401888 -5.861407020718033 C 10.94605935312272 -5.975298503054709 10.905402354709665 -6.093118555885249 10.85900074849895 -6.21049386488632 C 10.781404437914777 -6.424132909211801 10.649034552864997 -6.6136325988548474 10.475149761658425 -6.76001192821398 C 10.27501503838539 -6.945988972914726 10.048269809314199 -7.156797548095655 9.751440365111655 -8.121558100229068 C 9.659341330420265 -8.420833635493848 9.522323168949818 -8.591318770133837 9.344129141265231 -8.628306631953556 C 9.143549674162696 -8.670112551926138 8.909688543819577 -8.53661527910588 8.649179845692512 -8.23215106583031 C 8.361541773966206 -7.895961792717409 8.164001389698566 -7.429277267633312 7.972946852944388 -6.97793640466683 C 7.922764924182964 -6.8593380501346655 7.870915206060934 -6.737033497023365 7.818546620137827 -6.619621126036517 C 7.301531918349147 -5.46098932622881 6.987172154867315 -5.373041233946045 6.1470510609500595 -5.138031182043386 C 6.091655746187324 -5.1225392719826175 6.034073774262901 -5.1063308301965655 5.974305145176796 -5.089405856685198 C 5.751562610571065 -5.025918675024702 5.532674522487631 -4.492485513530475 5.24789022366726 -3.745871809764675 C 5.169467061732861 -3.5403630985518992 5.101754813692153 -3.3629473725689234 5.057873422515252 -3.276592945675194 C 4.847398405206437 -2.862351130485802 4.753186837324948 -2.770363281751777 4.427819664063099 -2.661363981539564 C 4.359305902706353 -2.6332598305132837 4.295460574567805 -2.5949076457301192 4.238469978655331 -2.5476207471460564 C 4.175909346639609 -2.5012562029211365 4.09022203549012 -2.437694897289054 4.050380400764462 -2.4512595840886737 C 3.9182914834042646 -2.4957339670382384 3.807216711987723 -2.5439145485669323 3.6997740151787397 -2.590130844848689 C 3.4996392919057038 -2.6764111477708425 3.3106231643700568 -2.7579475165117078 3.037809886960275 -2.793527022871359 C 2.860357098991512 -2.8162830821472236 2.764737175649951 -2.71265776987474 2.654181272034496 -2.592243378038795 C 2.5113153187509574 -2.424058303929707 2.3332154000982324 -2.289344618657215 2.1324967600361147 -2.1976444153187904 C 1.8547171765302952 -2.0685575188076832 1.3127226963182808 -0.7382175388288621 1.185822456968861 -0.34432275383889 L 1.185822456968861 -0.34398919596676514 L 1.1854888990967354 -0.3426920264640678 C 1.1750258023680413 -0.31236293328840503 1.1664359483963342 -0.2814196552923569 1.1597678809575738 -0.2500370619858092 C 1.1619174761334679 -0.25033355787214084 1.3808055642169066 -0.3479548284464329 1.4086761775319674 -0.3642991641803981 C 1.6375536372356252 -0.5089560946108254 1.9007793839861007 -0.59015328788416 2.1713747831311894 -0.5995686499835902 C 2.471354496125998 -0.6127256549395028 2.5110849448942743 -0.6350740323716604 2.5461085214670556 -0.6547910088126301 C 2.576054605986429 -0.671580088376091 2.6017015001540087 -0.6863678207068258 2.8728469882031846 -0.6835511097866869 C 3.133133314415505 -0.6811050187244607 3.375704011419581 -0.6679480137685481 3.6326176969248976 -0.6539015211536459 C 3.7545145681924907 -0.6473415496685888 3.8772268031474977 -0.6406703922261512 4.002607501079471 -0.6351852183290365 C 4.087583109411558 -0.6339481309949306 4.172532039926064 -0.6390770295267947 4.2567415376504245 -0.6505288804466307 C 4.31151915264998 -0.6565699841306163 4.368149866939092 -0.6628705217151403 4.422223304208603 -0.6653536747631597 C 4.7651949207213224 -0.6801784690796824 4.905845156799324 -0.7030827762987046 5.130107232822493 -0.7600099864741487 C 5.208009383205682 -0.7857046083708763 5.282902753260636 -0.8197526976276492 5.353479821186686 -0.86155982754231 C 5.481343672166678 -0.9299762533130664 5.626293098596462 -1.0075099275884751 5.7591232556724865 -1.0120685518407964 C 6.663991638767152 -1.0427558760759963 7.347599966687735 -1.077001150947158 7.905012232988937 -1.2381466651677435 C 7.9808781179037345 -1.2600873607561995 8.052074192608831 -1.2842888374779138 8.127384147736755 -1.3098616076739118 C 8.319482113598053 -1.380541650399457 8.517955703434893 -1.432508939540023 8.720042362525483 -1.465040142182084 C 9.280123091803656 -1.5494673458146861 9.676982835656922 -1.5460576431218778 9.899465936362123 -1.4546257241747398 C 10.124951057916409 -1.3619707596964812 10.189216541278526 -1.3184970503632814 10.240843887485816 -1.2835105357762933 C 10.3095749044667 -1.2363339143676235 10.385967564774166 -1.2014355601923672 10.466625504926437 -1.180367029319103 C 10.804538676977824 -1.0758197362595237 11.154914069597282 -1.0169252599120657 11.50843792551997 -1.005249146455201 C 11.634448677210393 -1.0015429478760716 11.763424387764132 -1.0039149149667104 11.888249155909236 -1.0062127580857778 C 12.177962698839853 -1.0115126220539317 12.477534729990957 -1.016960733965253 12.740304209251292 -0.9456534733027864 C 12.843262405779537 -0.9177087360161496 12.936473300044653 -0.89158003603327 13.023383656725265 -0.8672673733541805 C 13.482952280537425 -0.7385881586867749 13.760361244185326 -0.660906236468203 14.364545736555144 -0.6152458699733216 C 14.541924400552322 -0.6018664931026585 14.59599783782183 -0.5841138019086323 14.64369661353523 -0.5684365819189061 C 14.699586088108518 -0.5499055890232594 14.747803731623005 -0.5341913070477453 14.967507183393856 -0.5324864557013402 C 15.441641167621992 -0.5287802571222162 15.521361499059083 -0.500464899977656 15.653413354433496 -0.45343324000848995 C 15.716418730278715 -0.4311960485337121 16.152082373255475 -0.30944742520927804 16.152082373255475 -0.30944742520927804 C 16.15334248077238 -0.30918799130870767 16.07336271543475 -0.44109159873995374 16.066506248063355 -0.45235844242051115 Z M 14.763925695442214 -1.386320484361348 C 14.976698555870087 -1.3779074135867182 15.119424263152403 -1.345552299990918 15.231351460242138 -1.2842888374778925 C 15.094005687455464 -1.3239534305193636 14.951802752797498 -1.3442859553871198 14.808844822221278 -1.3446998743177208 C 14.741696033927095 -1.3494583685639716 14.678683736750742 -1.3788984319838873 14.631947964039387 -1.427348102632326 C 14.671832405777792 -1.4028838391938105 14.71720077386415 -1.3887802774213824 14.763925695442214 -1.3863204843613586 Z M 2.2088073887804027 -2.033571004220663 C 2.4310670735965076 -2.1352866967513533 2.628530694046807 -2.284149529870377 2.78749323492581 -2.469827638970088 C 2.8934534523031443 -2.5852016007384178 2.9338880788014543 -2.624376119719824 3.014534959883329 -2.6141099496556324 C 3.262183148940819 -2.581866022017202 3.431815857907611 -2.508668600079374 3.628207320615724 -2.423981962546245 C 3.7389855961459286 -2.376209062861257 3.8535071322410563 -2.3268424977872355 3.992563702930023 -2.279884961789662 C 4.122280653199588 -2.2362259425275015 4.24128668957546 -2.324359344739227 4.346320357308011 -2.402411886815713 C 4.388603887102198 -2.437555305061349 4.435348874016363 -2.466953178729841 4.48533986601119 -2.4898411112973893 C 4.857627513284831 -2.614591755470915 4.987937455327049 -2.7397130195023545 5.2191671846789855 -3.194611833104813 C 5.26734776620768 -3.289527578716335 5.336653679637421 -3.471094247107935 5.416892878875589 -3.681383954487793 C 5.564325458353398 -4.067755156362125 5.871161638719595 -4.8718520000902386 6.02393114415134 -4.915548081338178 C 6.083452693332173 -4.932522470830589 6.140775231356063 -4.948656788645065 6.195898758222988 -4.963951034781617 C 7.04461823284383 -5.201481301718083 7.432212480249272 -5.309850548171855 7.983843076767027 -6.546016022254971 C 8.036915840420178 -6.665022058630849 8.089136178400116 -6.788327285358514 8.139503417090502 -6.90759275563493 C 8.325183965904928 -7.346258419460787 8.517202114289672 -7.79982300157476 8.786605689006656 -8.114738694843451 C 8.994931111139575 -8.358273003478098 9.179796296266588 -8.477612597726102 9.307326589374458 -8.451372711785863 C 9.442714023470092 -8.423279726556057 9.52951319419332 -8.227629503563762 9.578472077423637 -8.068559460547492 C 9.889533324170046 -7.05747142617496 10.135217227980586 -6.829095469728944 10.351955720888125 -6.627700638939005 C 10.477225232862732 -6.5112148175969455 10.585446231373332 -6.410702712130933 10.69070227102064 -6.14418997230567 C 10.735621397799697 -6.0304837998979455 10.7756483424543 -5.9145909703285495 10.814415179592007 -5.802478463309853 C 10.965257461762608 -5.365851208702516 11.107723735144376 -4.953462492802686 11.488720949078974 -4.867738119667402 C 11.642972933942378 -4.832973976995154 11.792629232567663 -4.8760400044846515 11.937170977153741 -4.917771800485658 C 12.233666863484164 -5.003199677734605 12.447625707457352 -5.064944946062918 12.658953150439363 -4.503863543168386 L 12.71825232770544 -4.345757111782684 C 13.058777853155938 -3.436886034222562 13.352864710409925 -2.6520243611201346 14.061564002711219 -2.152725288539699 C 14.11963882287834 -2.1103141928114235 14.173525112765688 -2.062446984129835 14.222487145017059 -2.009777209342645 C 14.213221648569231 -2.015633003097669 14.204215586021949 -2.0216741067816493 14.194616531702 -2.027270466636139 C 13.544512238936754 -2.405302721707434 13.249943575867476 -3.037394889378106 12.908899182615905 -3.769183798827383 C 12.877668282589099 -3.836241285119116 12.845943222751746 -3.904052365121932 12.81372400310384 -3.972617038835841 C 12.531200485416736 -4.57187228709543 12.190044906207795 -4.488519881050792 11.88902745761083 -4.414988901240833 C 11.760162933014467 -4.383486213318229 11.638414309690035 -4.353762500713596 11.523410967779625 -4.375888506231009 C 11.20742047692297 -4.436707224914544 11.060729137161001 -4.773155931927984 10.890911118265244 -5.1627144645803735 C 10.859667864243171 -5.234429407086542 10.827905742420029 -5.307256209166461 10.794549955207856 -5.379230585573168 C 10.71680889837086 -5.55895329945048 10.599210361435851 -5.718640934473771 10.450651789050365 -5.846211606543581 C 10.27783174930551 -6.007579492678918 10.081959154398472 -6.190480392558992 9.777643189066083 -7.017370357548759 C 9.68713781976372 -7.263276633274051 9.553899980843987 -7.407151262115889 9.381561746914429 -7.445065673580396 C 9.174904114142127 -7.490392482203152 8.926366437425651 -7.375611512207486 8.66315221433581 -7.112693785003983 C 8.376848374097996 -6.826612316680914 8.17986391961722 -6.427825349566497 7.98936531264992 -6.042195387407981 C 7.93840508218688 -5.938977756979199 7.885591752434272 -5.8322762998860425 7.832481926795338 -5.7302817149883865 C 7.319766415358446 -4.74813909151885 6.948516503686965 -4.6586343958328555 6.13504297755366 -4.462428243053695 C 6.072630593481105 -4.447418138808215 6.0078091803321145 -4.4317779808042825 5.940096932291407 -4.415025963226621 C 5.733291051575939 -4.363139183118787 5.530636113269091 -3.91954427518269 5.266940084363967 -3.29834833133465 C 5.185922583424185 -3.107553228481028 5.115986616235986 -2.942775639652889 5.069807381940028 -2.8650937174343163 C 4.860518348176541 -2.5130048524169393 4.758746135193619 -2.42865177275593 4.429339205480525 -2.334291956931283 C 4.363669658966149 -2.311164188538128 4.3015860374076365 -2.2788996697780117 4.244918764182998 -2.2384496616749763 C 4.1690528792681985 -2.189824336316782 4.0905555933622235 -2.139531221597977 4.03989185878551 -2.154170705985549 C 3.911138520146523 -2.1912326917768548 3.799285447028371 -2.231704380260963 3.691138572489349 -2.2707306512992007 C 3.4804041212799963 -2.346855970114537 3.2813071336091193 -2.4187562225496624 3.0085679801709198 -2.4467009598363045 C 2.8173651954735854 -2.4662696883341164 2.7303065908498168 -2.3716133766231273 2.6379481222578898 -2.2712865810860707 C 2.5068308574009324 -2.1171672038884912 2.3359343829328116 -2.001984185127994 2.143874789674026 -1.9382846387512114 C 2.1248411514101395 -1.9308456353347907 2.1066526204328584 -1.9214035017673474 2.0896160424755528 -1.9101175295498294 C 2.1197763506867524 -1.9595394005018694 2.160475228371789 -2.0016936174075983 2.2088073887804027 -2.033571004220663 Z M 2.1972811111993025 -1.7922604147334908 C 2.41270019587939 -1.8643482301529186 2.604535281336657 -1.9935106125893984 2.752358472395648 -2.165993479453003 C 2.8393058910620463 -2.2606127291781934 2.8783692240860774 -2.3036416946818923 2.992742512238042 -2.2920042311434266 C 3.2466171149084686 -2.2660608410895096 3.4282208452858516 -2.2003499402815336 3.6385105526657036 -2.124409931395154 C 3.74902939429537 -2.0845312346837144 3.863254434504166 -2.04328124449799 3.9968999552676046 -2.004662655303454 C 4.115498309799776 -1.9706768143328368 4.2286485524206245 -2.0432441825122023 4.328678852071349 -2.107398479916948 C 4.372992755446711 -2.1391643363399027 4.42117965541048 -2.165144660280051 4.472071675097903 -2.184709782277607 C 4.838614714573884 -2.2897063880243698 4.975262256186424 -2.401967142986228 5.203156406817146 -2.785373385997257 C 5.279739125725342 -2.9323493117248214 5.348679768076583 -3.083182480967375 5.409702853632081 -3.237270178750614 C 5.556579503323014 -3.5832067541266364 5.829911648533871 -4.227121695264741 5.97756659992642 -4.263887185169709 C 6.044759980166055 -4.280490954804218 6.109284897428715 -4.296056988836564 6.171437847600725 -4.311030031096245 C 6.979389137851132 -4.505939014372704 7.4246147731620615 -4.613270525224323 7.969907770109499 -5.65786259475219 C 8.023981207379016 -5.761376721067299 8.07705397103216 -5.868856479862081 8.128421883338902 -5.972889473978267 C 8.313324130451718 -6.347215530470426 8.504563977134836 -6.734365034046384 8.77274450632071 -7.002323191317501 C 8.993448631707917 -7.222879068761556 9.197882545332746 -7.326244947133491 9.348243021688063 -7.292963283892908 C 9.465544206717535 -7.267019893838995 9.561052944101721 -7.1562416183087905 9.632100770863655 -6.963111610350312 C 9.949166059308258 -6.101605750631471 10.159381642716529 -5.905362535866521 10.344839819616205 -5.732171876263763 C 10.47853670660091 -5.618082619297242 10.584227138422847 -5.474795051260309 10.65375147118672 -5.313371436822039 C 10.686625452583602 -5.242286548074323 10.717868706605671 -5.17064572953973 10.748667216798243 -5.099968522635716 C 10.928195475971311 -4.6880986745369615 11.097791122952316 -4.299096071671448 11.49398375106134 -4.222822504912953 C 11.642231694226552 -4.194321837839435 11.786365756968927 -4.229530724341173 11.925718823544226 -4.263590689283383 C 12.215877110304337 -4.334527330087936 12.444883120508798 -4.390379742675423 12.67333320092639 -3.9057572164683467 C 12.705453588612187 -3.8374149146691883 12.73709217048269 -3.7698014985905894 12.768248946537913 -3.702916968232552 C 13.120337811555295 -2.9475195738342093 13.42424609504398 -2.29508037596411 14.116526927639725 -1.8925501482847693 C 14.223448958848579 -1.8241260811722846 14.31929629115163 -1.7397769292993779 14.400755296673243 -1.642418806179271 C 14.346566906894761 -1.6855686096213631 14.287537137335466 -1.7222601014460341 14.224859112107705 -1.75175166426361 C 13.585576919193517 -2.0507307036420537 13.280260280244761 -2.5654846242974534 12.926725997781524 -3.161515479793196 C 12.884994201780518 -3.231933252796673 12.842558228049477 -3.303388761402303 12.798825084815732 -3.3759561295816782 C 12.5079255583398 -3.85820668869811 12.179889922100973 -3.793830019378624 11.890806432928809 -3.7368657472173865 C 11.761311854574 -3.7114412249645516 11.638784929547949 -3.687387996185995 11.518963529484669 -3.7065490428401002 C 11.161167118655431 -3.7636986249302886 10.975078887997299 -4.101740997332769 10.778057371530736 -4.459611532133593 C 10.762071301659422 -4.488643421003443 10.746011107816521 -4.517662955878027 10.729876790002038 -4.546670136757356 C 10.652686809713366 -4.692100597763666 10.549798023743264 -4.822350216614986 10.426190878428102 -4.931114115370544 C 10.280426088310907 -5.067984028897824 10.115166693667486 -5.223125501420218 9.803549517134211 -5.911626011465252 C 9.715860858751991 -6.105386073182193 9.58858999954466 -6.222761382183243 9.425517262062922 -6.260379297761413 C 9.136915578706041 -6.326720252327853 8.832525489402077 -6.119988495583961 8.676865149078598 -5.990716289143892 C 8.39271090401668 -5.755039121497003 8.196652999180682 -5.4242979602954176 8.007006817886587 -5.104490084902254 C 7.955120037778759 -5.016616116591077 7.901046600509253 -4.9257030654450045 7.846639605367616 -4.839237452593906 C 7.338890400026763 -4.031656782201407 6.908267187117617 -3.9439310618333927 6.12662990677903 -3.784749832859749 C 6.055767389946058 -3.7702956584011345 5.982088162192947 -3.755322616141453 5.905666347491284 -3.739200652322232 C 5.7148341826518685 -3.699062521710254 5.519739889446442 -3.3238840395448985 5.284507465629043 -2.837593723977206 C 5.225027675995219 -2.704919198871364 5.157434602213256 -2.576033156518018 5.0821119612227434 -2.45166726593237 C 4.8731194233455835 -2.159804127825854 4.763378883417532 -2.084753606598464 4.430080445196346 -2.0055150809766618 C 4.367202133676981 -1.9870578645175412 4.306916224822903 -1.96070690745593 4.25066337198064 -1.9270919190422626 C 4.172091962103083 -1.8846930072970158 4.090592655348011 -1.841033988034865 4.0305151763803035 -1.8554140385218876 C 3.905097416462532 -1.885434247012837 3.792873723486467 -1.9184194143671052 3.684319167103743 -1.9502927221476218 C 3.4625402441285833 -2.01541063118294 3.2531029624219334 -2.0768964656107096 2.9804008709695218 -2.098540665312834 C 2.773928548126169 -2.114959125018376 2.7016206138473366 -2.0378701945724726 2.6180087739021594 -1.9486249327870064 C 2.537917822607155 -1.8631970555380546 2.4382952048001267 -1.7568662183028065 2.153251472079222 -1.6761822752351332 C 2.0887300299201836 -1.654502268112056 2.0294936675594935 -1.6194857614341167 1.979393696732218 -1.5734093886358567 C 2.0605223836293973 -1.6881532966457238 2.136499454501571 -1.7700602852445018 2.197281111199308 -1.7922604147334908 Z M 2.188312110637813 -1.5523581807063858 C 2.5078976141162164 -1.6429006119945386 2.6259400388615166 -1.7688372397133865 2.7121091558263 -1.8608250884474051 C 2.7876044208831847 -1.9413607835719047 2.8254817703618937 -1.9817583480844263 2.969986452962183 -1.9703061944749125 C 3.229420353501306 -1.949625606403366 3.432557097623438 -1.8899928712651635 3.647738987127742 -1.8267651235051954 C 3.7578501469137064 -1.7944841338809665 3.8716675052787957 -1.7610542226972195 4.000272595974614 -1.7302186505188502 C 4.108530656471011 -1.7045717563512657 4.216566345052659 -1.76249964014308 4.311815648536307 -1.8138304904640332 C 4.358307128536855 -1.841834971144647 4.407992008777745 -1.8641577047164333 4.4598041578009795 -1.880319692973635 C 4.8239381682005344 -1.9667853058247458 4.9598815320830365 -2.0596626422177486 5.1870344429979305 -2.3769503025771 C 5.241812057997475 -2.453446241250351 5.315417161778999 -2.605622754909442 5.400659729098994 -2.7818524973470797 C 5.545646217514577 -3.081498652469768 5.788253976504446 -3.5830585061834723 5.932165667332066 -3.613338148574961 C 6.008402172104778 -3.6293859884225945 6.081673718014187 -3.644321968696498 6.152239738960832 -3.658664957197727 C 6.941993594187706 -3.8195139755319767 7.418647793449658 -3.916616378305192 7.955898339480379 -4.770969274766312 C 8.011194822281006 -4.858917367049076 8.065490631465266 -4.950534595925177 8.118007465331543 -5.039112741966381 C 8.302020224785357 -5.349506872968545 8.492333521823696 -5.670426607935439 8.759179819521083 -5.891834911052685 C 8.993078011849992 -6.085854406670153 9.225271352832511 -6.174729048597706 9.396645975131499 -6.135035661815207 C 9.51846872242751 -6.106942676585402 9.615830559101262 -6.014028278206599 9.686025960189987 -5.858923867670004 C 10.008131678702206 -5.147037244590654 10.183323685537687 -4.982556151648856 10.337872166287429 -4.837458477275904 C 10.45170787966854 -4.737767098456221 10.546341255405348 -4.6180874058599555 10.617097167239109 -4.484331876656368 C 10.63310794510095 -4.455571775682311 10.649044598991207 -4.426737550736679 10.664907128909888 -4.397829201819459 C 10.86819212097518 -4.028506513409137 11.078444766369245 -3.646582749829756 11.498579437299455 -3.5794634935617022 C 11.641379268553347 -3.5567074342858485 11.780843521086016 -3.5840962417856153 11.915786211352152 -3.610632623612191 C 12.19927334066983 -3.6662256022991393 12.444141880792973 -3.7144061838278386 12.688306243186076 -3.309726360972599 C 12.731891138476648 -3.2374554886795606 12.774141802278734 -3.1662223519886696 12.815725350336578 -3.0961751988431123 C 13.180155856622466 -2.481761598394896 13.494923301947999 -1.9509598378918458 14.170266807037127 -1.6352658429215348 C 14.280154230323951 -1.5794347457934288 14.378826426784567 -1.5038539036866005 14.461351643442022 -1.4123009364010528 C 14.55993652564689 -1.313493682281444 14.653073295940434 -1.2201716020589402 14.805323933571106 -1.2156129778066083 C 15.107712675642347 -1.206606915259326 15.266152664900165 -1.154942507066247 15.390310317301033 -1.0529849841543735 C 15.269895925465086 -1.1102086902161492 15.108194481457637 -1.1426008657977373 14.84842702304639 -1.1482342876380214 C 14.717153469373592 -1.151088060543949 14.657668982178556 -1.203827266324975 14.575280187764484 -1.2766911303906712 C 14.48419762415256 -1.3644488081422725 14.375873693099017 -1.4323232228231442 14.257177163717731 -1.4760104899762982 C 13.626233917606594 -1.7040158265643948 13.324364043336423 -2.089905222623443 12.942180845856509 -2.5784192573385996 C 12.89103530546451 -2.643759538288668 12.8386296575556 -2.7107305466135534 12.784037352485019 -2.779109910398506 C 12.490358177074736 -3.146913057391396 12.186375769614465 -3.1024757364276203 11.892325974346267 -3.059557956881296 C 11.768207272189631 -3.035303883620246 11.641353632560985 -3.028146310716795 11.515294392891342 -3.038284377037086 C 11.132888823496678 -3.0868726404094815 10.90403106123538 -3.3733247285904637 10.665166562810427 -3.7146285557425776 C 10.589952146649853 -3.824934003150527 10.501934201121326 -3.925940038450328 10.402953013336948 -4.015534818382176 C 10.277979997248682 -4.133206623269552 10.148707790808626 -4.254918184608188 9.82949290718813 -4.806697029069106 C 9.75630718414893 -4.943033048412955 9.628254956683211 -5.041514007167677 9.477700538057078 -5.077249525345607 C 9.256699916783539 -5.129432801339768 8.969432464915155 -5.053307482524437 8.689651534176608 -4.868738793283747 C 8.408981115779067 -4.683428864327229 8.214405690374724 -4.420992942939014 8.026241988512279 -4.167155402254376 C 7.972502109114888 -4.094625096060794 7.9169461924137225 -4.019685760790779 7.860834345925693 -3.948674996014649 C 7.3543823100875425 -3.3079103236688088 6.883620966566407 -3.230895517194482 6.103762661545806 -3.1032911001150287 C 6.028563892375253 -3.090949458846519 5.950844908170893 -3.078237197720112 5.8702721510605995 -3.064561324963112 C 5.681256023524958 -3.0323544593104756 5.479008767061811 -2.6787831148614387 5.300518243490894 -2.3667953184702517 C 5.22042729219589 -2.2268492601222887 5.1448579031674235 -2.094575032833129 5.094342416533873 -2.038574372302474 C 4.884460390997722 -1.8054174196893875 4.766455028238216 -1.741337246256223 4.429635701366857 -1.6776647546667602 C 4.369374532568688 -1.6635415716735968 4.310829971218711 -1.6428999846639787 4.255036686304026 -1.6161047962673978 C 4.174167433307401 -1.5809329717514533 4.090629717333805 -1.5444639777328169 4.022139167591478 -1.5576209826887295 C 3.9001681723522976 -1.5808588477798766 3.787870355404651 -1.6066169279048266 3.679241675050345 -1.6314855203707914 C 3.4411003416535757 -1.6927994494745073 3.1980238556421163 -1.7330310882817033 2.9528267535408035 -1.7517146022777847 C 2.7296024131197836 -1.764723359290529 2.6679683307488444 -1.7019403553600565 2.5964757601574266 -1.6288541193796036 C 2.529578875804123 -1.560585941552021 2.446337655716854 -1.47560280813257 2.160145001436415 -1.414561717534295 C 2.052035188883181 -1.391509162372099 1.9447036780315674 -1.3212025753260033 1.8431167749776074 -1.2269539454587202 C 1.964124158586221 -1.3943258732922645 2.0866510836122716 -1.523561017746541 2.188312110637813 -1.5523581807063858 Z M 2.1814927052522126 -1.3134566202956508 C 2.4981873738388947 -1.3810206203931994 2.597550557745379 -1.4824963374897795 2.6701179259247496 -1.5565832470865972 C 2.7326785579404715 -1.620478110590799 2.7705188454333873 -1.6590596377995528 2.9464520919847086 -1.6485710958206106 C 3.1859316747552087 -1.6300931512681842 3.423331888053704 -1.5906690652797861 3.6559296859876107 -1.5307510429900546 C 3.7654478540009224 -1.5056600786093455 3.8787463445649344 -1.479716688555433 4.002533377107889 -1.4560711416205736 C 4.102378366829656 -1.4370212809238492 4.200777939105569 -1.4798649364985916 4.296064304575005 -1.5213002366132669 C 4.3448241328015484 -1.5449332918081922 4.39596131879442 -1.5633083885242947 4.44861143809201 -1.576114913598599 C 4.80948399374193 -1.6443089674546005 4.944500807979647 -1.7178770092503415 5.170949541164504 -1.9694537688017109 C 5.228803300984726 -2.033682190178033 5.303520264339995 -2.1642886281065934 5.390022939176899 -2.3155015301351023 C 5.532007406743375 -2.563816834936837 5.746596304475031 -2.9386617592300794 5.887431850481979 -2.9626408640370485 C 5.967782235677522 -2.976353798779826 6.045278847967137 -2.989028997920455 6.12025524522294 -3.0012965152173727 C 6.897148591380233 -3.1284191264815426 7.41042003260399 -3.2125498342278016 7.941740660908112 -3.8845948225815006 C 7.998853181012507 -3.956865694874545 8.05489090352896 -4.032472145888799 8.109112588741635 -4.105632505840833 C 8.291976426635927 -4.352242959296165 8.480992554171575 -4.607340607497696 8.746578744352053 -4.782458490361609 C 9.00267706616996 -4.951461145569944 9.260480239334257 -5.022323662402921 9.453943805164858 -4.976663295908029 C 9.57659778697684 -4.947020701191139 9.680707479878361 -4.866314780922977 9.739988211502133 -4.754921434918678 C 10.066800802209851 -4.189985585501838 10.201669368504405 -4.063011222180825 10.332127558489791 -3.9402619252400353 C 10.425965288269698 -3.85551239438343 10.509329175298099 -3.759843002239939 10.580442863291527 -3.6552923164907067 C 10.775759528411694 -3.376252625467984 11.04327294185332 -2.993995304016483 11.502248573892818 -2.935696800366766 C 11.637601631109856 -2.924360510775024 11.773869272498715 -2.931592870951225 11.907261954620182 -2.957192752125721 C 12.184485608339124 -2.9977015025956177 12.44647678589785 -3.0360606578896103 12.703205161474198 -2.714584993135846 C 12.757612156615835 -2.6464650632514326 12.809758370624198 -2.579790550812879 12.860718601087235 -2.514672641777561 C 13.237601934599002 -2.0328668264906193 13.563080293818224 -1.6168830979690343 14.222005339201797 -1.378722777274116 C 14.328389526341493 -1.3394235726078154 14.425371699709387 -1.2782952618232075 14.506715514050583 -1.199268642072627 C 14.594292986475438 -1.121734967797213 14.676978276775838 -1.0485004838736023 14.846166241913135 -1.0448684092660594 C 15.252736226043734 -1.036010594661935 15.38993969744314 -0.9664081853458724 15.531182925293795 -0.8200874654418042 C 15.407803574594542 -0.9016238341826748 15.247510486047158 -0.9463576510327725 14.887935099899941 -0.9516575150009254 C 14.726974895608304 -0.9539924201057817 14.6733091401825 -0.9938711168172158 14.599073982642516 -1.0490934756462602 C 14.508651513143604 -1.1207276875489987 14.403662687273304 -1.1717294882609295 14.291459500574703 -1.1985274023567838 C 13.666001428360673 -1.3618966357248512 13.368134248555972 -1.634042797390392 12.955856718613514 -2.0106296350158264 C 12.896335169432682 -2.0650366301574623 12.834664025075956 -2.121333786574449 12.76958317802642 -2.179521104266792 C 12.48027731693951 -2.4380284551611258 12.181928331319519 -2.4093054161728737 11.893586081863187 -2.3817683607299385 C 11.767251496623402 -2.3656114302984843 11.639671749096827 -2.3614419141843994 11.512551805942802 -2.3693155335040696 C 11.089192742248745 -2.4093054161728737 10.789213029253936 -2.6803397182646744 10.600419273633033 -2.8807709374240424 C 10.505429404049924 -2.981542476790593 10.44553723501118 -3.036764835619638 10.392686843272784 -3.0855013469351924 C 10.282390373557863 -3.1871623739607333 10.1952947069483 -3.267475697170494 9.855288049298888 -3.7000261333407893 C 9.599560347338894 -4.025059748730508 9.073836078889265 -3.92714198226989 8.701214873743508 -3.744500516290354 C 8.426140815200453 -3.6095948880100055 8.234011480858339 -3.415241834520412 8.048219746086545 -3.2272634425869287 C 7.991959651655341 -3.1703732943972787 7.933772333962998 -3.1114817989748973 7.874992024497993 -3.056222378160064 C 7.365278533910201 -2.5771591498216857 6.81931842121852 -2.5102622654683815 6.063661592919638 -2.417681424961705 C 5.989204063464906 -2.408527114471248 5.912708124791656 -2.399150432066052 5.8340625909425174 -2.3891436959023986 C 5.662132038856668 -2.367203000313948 5.47782278351651 -2.1106599346665558 5.315194789864275 -1.8843223874390596 C 5.234881466654526 -1.7725434382924838 5.159015581739728 -1.6669167787872743 5.106239313972914 -1.6233689454824987 C 4.891279796383355 -1.445879095527947 4.7707542185900405 -1.3972908321555515 4.428004973992066 -1.3491102506268522 C 4.3699598332260035 -1.338984156152498 4.312913380967711 -1.323792437888069 4.257519839352077 -1.3037093180325092 C 4.174908673023254 -1.2765428824474867 4.0895549197458845 -1.248561083175046 4.014689708447452 -1.2590496251539927 C 3.8957207340573676 -1.2759498906748235 3.7831264212233893 -1.2948515034283838 3.674275368954339 -1.3131230624235037 C 3.426981388200983 -1.3598312369353796 3.1768967012442326 -1.390311855711996 2.925623255969999 -1.4043696714416907 C 2.6965801837797647 -1.4142652216479688 2.6430997382829116 -1.3749053927376007 2.5747203744979594 -1.310454599446528 C 2.5203504413421163 -1.2592349350829446 2.4526752552871978 -1.195562443493487 2.1649259976035182 -1.1519034242313309 C 1.9808391141781212 -1.123995748930482 1.8118364589697755 -1.0059533241851764 1.6697037434601307 -0.8689722247005207 C 1.8229921166929364 -1.0788913122224866 2.0070048761467567 -1.2762463865611764 2.1814927052522126 -1.3135678062530207 Z M 2.176489337170386 -1.0751480516575684 C 2.4881806376752467 -1.1223650215556855 2.5656401879790685 -1.1953400715787632 2.6278672621226655 -1.2539350711148174 C 2.6797540422304893 -1.3030792642740892 2.714295812987982 -1.335137881983563 2.922361801220359 -1.326835997166313 C 3.1703682185683726 -1.312882106845107 3.4171965667951825 -1.2827234141490944 3.6612666119415627 -1.236552999778704 C 3.770636532011706 -1.2182073168120136 3.8836385266893863 -1.1992315800868605 4.003682298667417 -1.1822201286086598 C 4.096337263145676 -1.1689519376953719 4.190585893012958 -1.2000469437742742 4.281647192102193 -1.2299930282936469 C 4.332649194226818 -1.2485881950280087 4.385164098230311 -1.2627368385859787 4.438604701928368 -1.2722807540815246 C 4.794955695311733 -1.3223144348997806 4.928934773947297 -1.3767955540129986 5.1552723211747935 -1.563587962401165 C 5.2158316059577805 -1.61354751924784 5.290919189170964 -1.7180993811651124 5.377866607837363 -1.8391067647737103 C 5.523668459940349 -2.0420211369810914 5.705123942374563 -2.294598570148821 5.843550459305083 -2.312203013399696 C 5.922084807196852 -2.322246811549137 5.998469559912733 -2.331586431968545 6.072778841424295 -2.340703680473209 C 6.843075154110738 -2.4351005582836596 7.399597932752939 -2.503294612139655 7.927768292264801 -2.999702849828365 C 7.987623399317754 -3.0559629442595684 8.046366646796972 -3.115336245497227 8.103071485057665 -3.1727452614879654 C 8.284341657562928 -3.3561650291691274 8.471764119709551 -3.5457741484774274 8.735052466770957 -3.6748610449885346 C 9.081693219877017 -3.844790249841659 9.567019923814133 -3.940817855026922 9.794024586785863 -3.6520679237268823 C 10.137959814929154 -3.2147364913895107 10.227056828771449 -3.132570068890188 10.339910575505968 -3.028537074774003 C 10.391797355613793 -2.9806529891316407 10.450651789050386 -2.926431303918956 10.543751497358134 -2.827624049799347 C 10.741143633682618 -2.6180755821353214 11.055577521136026 -2.3346996387750165 11.505028222827157 -2.292115417100807 C 11.637042289804278 -2.2837516395851445 11.769552162914724 -2.287933679970819 11.90077610710669 -2.3046053063124745 C 12.185078600111783 -2.3318088038832903 12.45374093511294 -2.3576039459940388 12.717696397918598 -2.121741468418188 C 12.782554873053375 -2.063739460654797 12.844003645495352 -2.0076276141667675 12.903339884747233 -1.9533688669683 C 13.308019707602472 -1.583712620685847 13.627642273066666 -1.2917753586077438 14.271631338176352 -1.1235139431152303 C 14.374254216166577 -1.099268830712452 14.470241153402498 -1.0526169516708368 14.552709438417594 -0.9869034634884892 C 14.632133273968357 -0.9278637201229447 14.700735009668055 -0.8768293656883177 14.886712054368815 -0.8740867787397599 C 15.382860858156985 -0.8668596915104576 15.469437656965471 -0.7867316782296596 15.641961200823989 -0.627105705426521 C 15.662382354994996 -0.6081670306871612 15.684174802640285 -0.5880423724024801 15.707894473546716 -0.5668429165298612 C 15.69722062163882 -0.5738105698586189 15.686917389588842 -0.5806052672536932 15.676984777396765 -0.5872270087150753 C 15.517840610408907 -0.6927424822629158 15.430151952026684 -0.7508556759836766 14.927591424696619 -0.755043680378094 C 14.737982305388314 -0.7566373457671185 14.687726252655306 -0.7851009508548428 14.624090823051638 -0.8211252010439845 C 14.533122165373555 -0.8741702783423593 14.432185019962535 -0.907870667766467 14.327594936721212 -0.9201177650925603 C 13.706176620958427 -1.023483643464501 13.414016986965585 -1.1939687781044954 12.971830434489558 -1.451994323183552 C 12.903932876519889 -1.491613585994453 12.83266267784321 -1.53323419603809 12.756314987113129 -1.5768190913286597 C 12.478350093678355 -1.735555576472808 12.180853533731568 -1.7204713482557459 11.893289585976845 -1.70549830599606 C 11.765795966351664 -1.6966204578958024 11.637906291044608 -1.6948634596475864 11.510216900837946 -1.700235504013695 C 11.160457798715314 -1.725653266846873 10.82395873126103 -1.844608144884476 10.535931418356164 -2.0446525379722793 C 10.435230822917681 -2.1104486959934246 10.340528878591822 -2.1849973323662244 10.252926094853773 -2.267432134563794 C 10.187956433761624 -2.326731311829871 10.089853357372036 -2.4165325034022027 9.88089788148067 -2.5911685804508213 C 9.55797679928105 -2.861128084954675 8.90309151034872 -2.6801173463499506 8.710072688347623 -2.618335016035844 C 8.444301188238187 -2.5330924487158493 8.256767540134193 -2.4065628292243373 8.075349119685768 -2.2841470901556624 C 8.011602504124724 -2.2411181246519583 7.951450901185439 -2.200498188224686 7.887667223638606 -2.161286607257492 C 7.363758992492749 -1.8392920747026462 6.751865607078335 -1.7902220055149671 5.977195980068517 -1.7281061173287338 L 5.796407613378543 -1.7135036949269606 C 5.64134026482773 -1.7007543718147557 5.475080196567942 -1.535976782986621 5.328351794820177 -1.390582612727342 C 5.248149657567798 -1.3110475912192072 5.172357896624582 -1.2359229460202306 5.116320174108132 -1.2057174276003195 C 4.894763623047723 -1.0861183994517836 4.765565540579246 -1.0514283807511218 4.424928829171378 -1.020148064743263 C 4.368618332168774 -1.0137155417458183 4.3127585496466425 -1.0038135195836801 4.257668087295224 -0.990498476110222 C 4.176571446193088 -0.9679952460461072 4.092549870654333 -0.9578251995794043 4.008426232848711 -0.9603300196761042 C 3.8898278783165403 -0.9714486154134869 3.776307015837778 -0.9837161327104154 3.6643056947764627 -0.9960207119931201 C 3.409763976361791 -1.023928387293969 3.169379936519402 -1.0502794591915876 2.8990868741434284 -1.0570618025913951 C 2.6525876066454726 -1.062658162445886 2.6073349219942927 -1.036937144306724 2.55374329054007 -0.9936116829166828 C 2.511270254823236 -0.9593664080455211 2.458456925070629 -0.9166339384281494 2.168298638310517 -0.8889115730562516 C 1.8863681123960778 -0.8619675093859689 1.6656269250230717 -0.7102728015421764 1.510114832642764 -0.5738846938301752 C 1.6712232848775515 -0.7783556694408134 1.9108290230183251 -1.0348987350882162 2.176489337170386 -1.0751480516575684 Z M 15.661900549179698 -0.47793121261650917 C 15.527291416785687 -0.5258523602446648 15.446014481945355 -0.5547977711476779 14.967544245379646 -0.5585039697268019 C 14.751880550060054 -0.5601346971016241 14.705404819877756 -0.5754042352476336 14.65159081650878 -0.5931198644558826 C 14.6024836853353 -0.609241828275092 14.546816582676765 -0.627550449256006 14.366213525915743 -0.6413004459845713 C 13.764586310565527 -0.6866272546073322 13.488103896562404 -0.7640497429253665 13.030054814167691 -0.892284213763272 C 12.943107395501293 -0.9166339384281601 12.849822377264584 -0.9427626384110335 12.74675299477897 -0.9707073756976712 C 12.480499688854248 -1.0430523719622968 12.17896337245621 -1.0374189501220128 11.887470854207614 -1.0321932101254463 C 11.762868457977252 -1.0299324289921774 11.634078057352475 -1.0276345858731144 11.508919731335244 -1.0311925365090806 C 11.157850192278861 -1.0428003246979056 10.809907402549882 -1.1012831321279029 10.474334397971024 -1.2050873738418728 C 10.396000369529336 -1.2255142676044901 10.321802353304587 -1.2593717365595127 10.255038628043884 -1.3051547354783857 C 10.202410608220234 -1.3407713038238356 10.136922079327007 -1.385171562801819 9.908990866710493 -1.478827200896438 C 9.682134451681918 -1.571926909204186 9.280753145562112 -1.5760407896270285 8.715928482102651 -1.4908352842928219 C 8.51230788889077 -1.4581469212316724 8.312328334622528 -1.405831018721699 8.118785767033174 -1.3346190141824756 C 8.043698183819991 -1.309120367958064 7.9727986050012305 -1.284993015207931 7.897488649873303 -1.2632376295484322 C 7.342856032506457 -1.1027592310720964 6.660841369974898 -1.0686251421583055 5.757826086169801 -1.0379748799088935 C 5.618991887395572 -1.0332680077134038 5.4712257500456545 -0.9542147920205526 5.340878746017638 -0.8844641347613162 C 5.272119155998575 -0.8436947232314571 5.199183802827127 -0.8104202980537547 5.123324889422696 -0.785212136812202 C 4.900952974674878 -0.7287296704662634 4.761488722142204 -0.7060477351619809 4.420777886762753 -0.6912600028312461 C 4.365814961834252 -0.688888035740602 4.308776565701432 -0.6825874981560833 4.253554206872393 -0.6764352085147225 C 4.170660724126082 -0.6651348344708996 4.0870376132430675 -0.6600555047728154 4.003385802781107 -0.6612397943402906 C 3.878116290806499 -0.6667249682373955 3.755478179823073 -0.6733961256798331 3.6336924945128497 -0.6800302211364766 C 3.376593499078582 -0.6939655277940044 3.1337633681739625 -0.7071225327499224 2.8729211121747715 -0.7096798097695185 C 2.59495621874 -0.7123853347322875 2.5677527211691795 -0.6969675486431006 2.53324801239748 -0.6775841300742513 C 2.5023383162475348 -0.6601649967523384 2.4638309130103693 -0.6385207970502149 2.170040551642715 -0.6256973499664227 C 1.8952308196820984 -0.6162235498026192 1.6278890305802731 -0.5338080882149097 1.3954450486044785 -0.3869069755130514 L 1.3780629772683595 -0.3768261153778276 C 1.3854753744266186 -0.3842385125360863 1.3928877715848775 -0.3913173518222308 1.401115532430545 -0.39965629862526875 C 1.5425440702101618 -0.540491844632216 1.8057582932999914 -0.8025200841767282 2.173116696463392 -0.8376177847210968 C 2.478803955270061 -0.8668226295246431 2.538362566436682 -0.9149661490675438 2.5861725281074626 -0.9536218002478787 C 2.626236534747859 -0.9860510378152707 2.6577762846562614 -1.0115496840396876 2.8977526426549485 -1.0055085803557073 C 3.1658590478692346 -0.9988374229132697 3.40520535210947 -0.9725604749872439 3.658635210950396 -0.9448010476295581 C 3.770933027898048 -0.9324594063610485 3.884713324277349 -0.9199695171493811 4.003608174695846 -0.9089621073693621 C 4.093069749366254 -0.9059122596748059 4.182477099233452 -0.916433711608863 4.2687866830326175 -0.9401682994056451 C 4.321756688099882 -0.9530894894221706 4.375475754528708 -0.9627193128511191 4.429635701366879 -0.9690025243512776 C 4.774793975041279 -1.0006905222028433 4.914369413531329 -1.0383084377810077 5.140855208701978 -1.1605388669207262 C 5.2034158407177005 -1.1943023359766043 5.277984556129801 -1.2684263075592108 5.36470960288145 -1.3541877426802813 C 5.505137467044696 -1.4933554993266291 5.664318696018345 -1.6510913108544072 5.800595617772961 -1.6623210925491758 L 5.981272798505565 -1.6769235149509543 C 6.762873016858354 -1.7395582709382582 7.38021451418409 -1.7890730839554383 7.914685411280464 -2.117590526009548 C 7.979395638472086 -2.1573580367636227 8.042845758146793 -2.200201692338365 8.104257468602981 -2.2416369924530404 C 8.28263680621653 -2.3620143223031915 8.467094309499839 -2.486505532576179 8.725786970323131 -2.5694873187629046 C 9.110490382836861 -2.692829607476363 9.607232178397691 -2.75294414842986 9.847690342211667 -2.551845813526241 C 10.055682206472461 -2.37795097619345 10.153377601018335 -2.2887057144079934 10.218013704238366 -2.2295918470708624 C 10.307369319498036 -2.1456595088238952 10.40387362226404 -2.069678801673118 10.506430077666291 -2.002513060127555 C 10.802285589130221 -1.797135613636308 11.147894095862835 -1.6750334082391793 11.507103694031464 -1.6489787776643228 C 11.63671727150447 -1.6433937297520194 11.766543095799268 -1.645150808197493 11.895958048953815 -1.6542415796466825 C 12.189081294577235 -1.6690663739632061 12.465897266452473 -1.6834464244502287 12.730705154931329 -1.5322705844075024 C 12.80694165970404 -1.4887227511027268 12.878026548451754 -1.447250389002253 12.945664672520884 -1.4076681881771398 C 13.392817531092959 -1.146788870192161 13.688201557849645 -0.974376512291018 14.31899655601762 -0.8694910925016295 C 14.417567006398713 -0.8580458641094735 14.512713771399294 -0.826376539066179 14.598480990869831 -0.7764655081654626 C 14.665859681038423 -0.7383287247862098 14.724009936744977 -0.7053806194177463 14.926998432923945 -0.7037128300571354 C 15.414252360122202 -0.6995989496342938 15.497345332266303 -0.6444136527910533 15.648261738408497 -0.5443462911545289 C 15.71813386353482 -0.4967604068904592 15.79091783783048 -0.45359752961682354 15.866186214861358 -0.4151111467002533 C 15.797062395860223 -0.43254705553570894 15.728877721229093 -0.4535145851982154 15.661900549179698 -0.47793121261650917 Z" fill="#67a97b" transform="matrix(1,0,0,1,0,0)" fill-rule="nonzero"></path></g></g><g><path d=" M 0.0915 1.0724999999999998 L 0.0915 0.00749999999999984 L 0.5505 0.00749999999999984 Q 0.6285000000000001 0.00749999999999984 0.6945 0.0389999999999997 Q 0.7605000000000001 0.07049999999999979 0.8085 0.1237499999999998 Q 0.8565 0.1769999999999997 0.88275 0.24299999999999977 Q 0.909 0.3089999999999997 0.909 0.3764999999999997 Q 0.909 0.47099999999999975 0.86475 0.5549999999999998 Q 0.8205 0.6389999999999998 0.74175 0.6922499999999998 Q 0.663 0.7454999999999998 0.558 0.7454999999999998 L 0.384 0.7454999999999998 L 0.384 1.0724999999999998 L 0.0915 1.0724999999999998 M 0.384 0.4904999999999998 L 0.5385 0.4904999999999998 Q 0.5565 0.4904999999999998 0.5730000000000001 0.47999999999999976 Q 0.5895 0.4694999999999998 0.60075 0.44399999999999973 Q 0.612 0.41849999999999976 0.612 0.3764999999999997 Q 0.612 0.3314999999999998 0.5992500000000001 0.30674999999999975 Q 0.5865 0.2819999999999998 0.56775 0.27224999999999977 Q 0.549 0.26249999999999973 0.531 0.26249999999999973 L 0.384 0.26249999999999973 L 0.384 0.4904999999999998 M 1.789478759765625 0.8174999999999998 L 1.789478759765625 1.0724999999999998 L 1.0304787597656249 1.0724999999999998 L 1.0304787597656249 0.00749999999999984 L 1.775978759765625 0.00749999999999984 L 1.775978759765625 0.26249999999999973 L 1.322978759765625 0.26249999999999973 L 1.322978759765625 0.41249999999999976 L 1.709978759765625 0.41249999999999976 L 1.709978759765625 0.6494999999999997 L 1.322978759765625 0.6494999999999997 L 1.322978759765625 0.8174999999999998 L 1.789478759765625 0.8174999999999998 M 2.1764560546875 0.00749999999999984 L 2.5034560546874998 0.00749999999999984 L 2.8424560546875 1.0724999999999998 L 2.5454560546875 1.0724999999999998 L 2.4809560546875 0.8639999999999998 L 2.1974560546874997 0.8639999999999998 L 2.1344560546875 1.0724999999999998 L 1.8359560546875 1.0724999999999998 L 2.1764560546875 0.00749999999999984 M 2.4344560546875 0.6689999999999998 L 2.3399560546875 0.2939999999999998 L 2.2409560546875 0.6689999999999998 L 2.4344560546875 0.6689999999999998 M 2.9354443359374995 1.0724999999999998 L 2.9354443359374995 0.00749999999999984 L 3.2279443359374995 0.00749999999999984 L 3.2279443359374995 0.41249999999999976 L 3.5519443359375 0.00749999999999984 L 3.8819443359375 0.00749999999999984 L 3.4949443359374994 0.4844999999999998 L 3.9089443359374996 1.0724999999999998 L 3.5729443359374997 1.0724999999999998 L 3.3089443359374995 0.6809999999999998 L 3.2279443359374995 0.7649999999999998 L 3.2279443359374995 1.0724999999999998 L 2.9354443359374995 1.0724999999999998 M 4.7593754882812505 1.0799999999999998 Q 4.65587548828125 1.0799999999999998 4.56212548828125 1.0432499999999998 Q 4.46837548828125 1.0064999999999997 4.39637548828125 0.9352499999999998 Q 4.32437548828125 0.8639999999999998 4.28312548828125 0.7627499999999998 Q 4.24187548828125 0.6614999999999998 4.24187548828125 0.5309999999999998 Q 4.24187548828125 0.41849999999999976 4.28387548828125 0.3224999999999998 Q 4.32587548828125 0.2264999999999998 4.40012548828125 0.15374999999999972 Q 4.47437548828125 0.08099999999999974 4.57337548828125 0.04049999999999976 Q 4.67237548828125 -2.220446049250313e-16 4.78787548828125 -2.220446049250313e-16 Q 4.93187548828125 -2.220446049250313e-16 5.04887548828125 0.062249999999999694 Q 5.16587548828125 0.12449999999999972 5.22287548828125 0.23249999999999982 L 5.00537548828125 0.3989999999999998 Q 4.97387548828125 0.33599999999999974 4.91087548828125 0.29774999999999974 Q 4.84787548828125 0.25949999999999973 4.77737548828125 0.25949999999999973 Q 4.72487548828125 0.25949999999999973 4.68137548828125 0.28049999999999975 Q 4.63787548828125 0.30149999999999977 4.60562548828125 0.33899999999999975 Q 4.57337548828125 0.3764999999999997 4.55612548828125 0.4282499999999998 Q 4.53887548828125 0.47999999999999976 4.53887548828125 0.5414999999999998 Q 4.53887548828125 0.6044999999999998 4.55687548828125 0.6554999999999997 Q 4.57487548828125 0.7064999999999998 4.60712548828125 0.7432499999999997 Q 4.63937548828125 0.7799999999999998 4.68437548828125 0.8002499999999998 Q 4.72937548828125 0.8204999999999998 4.78487548828125 0.8204999999999998 Q 4.85537548828125 0.8204999999999998 4.91987548828125 0.7852499999999998 Q 4.98437548828125 0.7499999999999998 5.03687548828125 0.6854999999999998 L 5.03687548828125 0.9704999999999998 Q 4.91687548828125 1.0799999999999998 4.7593754882812505 1.0799999999999998 M 5.02187548828125 0.7154999999999998 L 4.82537548828125 0.7154999999999998 L 4.82537548828125 0.5054999999999997 L 5.26337548828125 0.5054999999999997 L 5.26337548828125 1.0724999999999998 L 5.02187548828125 1.0724999999999998 L 5.02187548828125 0.7154999999999998 M 5.41189599609375 1.0724999999999998 L 5.41189599609375 0.00749999999999984 L 5.90089599609375 0.00749999999999984 Q 5.97889599609375 0.00749999999999984 6.04489599609375 0.0389999999999997 Q 6.11089599609375 0.07049999999999979 6.15889599609375 0.1237499999999998 Q 6.20689599609375 0.1769999999999997 6.23314599609375 0.24299999999999977 Q 6.25939599609375 0.3089999999999997 6.25939599609375 0.3764999999999997 Q 6.25939599609375 0.4379999999999997 6.24139599609375 0.4949999999999998 Q 6.22339599609375 0.5519999999999998 6.18889599609375 0.5992499999999998 Q 6.15439599609375 0.6464999999999999 6.106395996093751 0.6809999999999998 L 6.33139599609375 1.0724999999999998 L 6.0103959960937505 1.0724999999999998 L 5.8228959960937505 0.7454999999999998 L 5.7043959960937505 0.7454999999999998 L 5.7043959960937505 1.0724999999999998 L 5.41189599609375 1.0724999999999998 M 5.7043959960937505 0.4904999999999998 L 5.88889599609375 0.4904999999999998 Q 5.90689599609375 0.4904999999999998 5.92339599609375 0.47699999999999976 Q 5.9398959960937505 0.4634999999999998 5.95114599609375 0.4379999999999997 Q 5.9623959960937505 0.41249999999999976 5.9623959960937505 0.3764999999999997 Q 5.9623959960937505 0.33899999999999975 5.94964599609375 0.3142499999999998 Q 5.93689599609375 0.28949999999999976 5.918145996093751 0.2759999999999998 Q 5.89939599609375 0.26249999999999973 5.88139599609375 0.26249999999999973 L 5.7043959960937505 0.26249999999999973 L 5.7043959960937505 0.4904999999999998 M 6.895419433593751 1.0814999999999997 Q 6.7739194335937505 1.0814999999999997 6.67491943359375 1.0357499999999997 Q 6.57591943359375 0.9899999999999998 6.50466943359375 0.9127499999999997 Q 6.43341943359375 0.8354999999999998 6.39516943359375 0.7387499999999998 Q 6.356919433593751 0.6419999999999998 6.356919433593751 0.5384999999999998 Q 6.356919433593751 0.43199999999999983 6.39741943359375 0.33599999999999974 Q 6.43791943359375 0.23999999999999977 6.51066943359375 0.16424999999999979 Q 6.58341943359375 0.0884999999999998 6.683169433593751 0.04499999999999971 Q 6.78291943359375 0.0014999999999998348 6.90141943359375 0.0014999999999998348 Q 7.02291943359375 0.0014999999999998348 7.12191943359375 0.04724999999999979 Q 7.2209194335937505 0.09299999999999975 7.2914194335937506 0.17099999999999982 Q 7.361919433593751 0.24899999999999978 7.40016943359375 0.3457499999999998 Q 7.438419433593751 0.4424999999999998 7.438419433593751 0.5444999999999998 Q 7.438419433593751 0.6494999999999997 7.39866943359375 0.7454999999999998 Q 7.3589194335937504 0.8414999999999998 7.28616943359375 0.9172499999999998 Q 7.21341943359375 0.9929999999999998 7.11441943359375 1.0372499999999998 Q 7.015419433593751 1.0814999999999997 6.895419433593751 1.0814999999999997 M 6.65391943359375 0.5414999999999998 Q 6.65391943359375 0.5954999999999997 6.66891943359375 0.6457499999999998 Q 6.683919433593751 0.6959999999999997 6.71391943359375 0.7357499999999998 Q 6.74391943359375 0.7754999999999999 6.78966943359375 0.7987499999999998 Q 6.83541943359375 0.8219999999999998 6.89841943359375 0.8219999999999998 Q 6.9614194335937505 0.8219999999999998 7.0079194335937505 0.7979999999999998 Q 7.0544194335937505 0.7739999999999998 7.083669433593751 0.7327499999999998 Q 7.11291943359375 0.6914999999999998 7.1271694335937505 0.6412499999999998 Q 7.14141943359375 0.5909999999999997 7.14141943359375 0.5384999999999998 Q 7.14141943359375 0.4844999999999998 7.1264194335937505 0.4349999999999997 Q 7.11141943359375 0.38549999999999973 7.081419433593751 0.3457499999999998 Q 7.05141943359375 0.3059999999999997 7.00491943359375 0.28349999999999975 Q 6.95841943359375 0.2609999999999998 6.896919433593751 0.2609999999999998 Q 6.83391943359375 0.2609999999999998 6.78816943359375 0.2849999999999998 Q 6.74241943359375 0.3089999999999997 6.71241943359375 0.3487499999999998 Q 6.682419433593751 0.38849999999999973 6.66816943359375 0.43874999999999975 Q 6.65391943359375 0.48899999999999977 6.65391943359375 0.5414999999999998 M 7.858453857421875 0.00749999999999984 L 8.126953857421874 0.00749999999999984 L 8.224453857421874 0.33599999999999974 L 8.323453857421875 0.00749999999999984 L 8.591953857421874 0.00749999999999984 L 8.411953857421874 0.5159999999999998 L 8.488453857421874 0.7334999999999998 L 8.717953857421875 0.00749999999999984 L 9.035953857421875 0.00749999999999984 L 8.633953857421874 1.0724999999999998 L 8.380453857421875 1.0724999999999998 L 8.224453857421874 0.6914999999999998 L 8.069953857421874 1.0724999999999998 L 7.816453857421875 1.0724999999999998 L 7.414453857421875 0.00749999999999984 L 7.730953857421874 0.00749999999999984 L 7.961953857421874 0.7334999999999998 L 8.035453857421874 0.5159999999999998 L 7.858453857421875 0.00749999999999984 M 9.943464111328124 0.26249999999999973 L 9.637464111328125 0.26249999999999973 L 9.637464111328125 1.0724999999999998 L 9.344964111328125 1.0724999999999998 L 9.344964111328125 0.26249999999999973 L 9.037464111328125 0.26249999999999973 L 9.037464111328125 0.00749999999999984 L 9.943464111328124 0.00749999999999984 L 9.943464111328124 0.26249999999999973 M 10.996499267578125 0.00749999999999984 L 10.996499267578125 1.0724999999999998 L 10.703999267578125 1.0724999999999998 L 10.703999267578125 0.6554999999999997 L 10.346999267578125 0.6554999999999997 L 10.346999267578125 1.0724999999999998 L 10.054499267578125 1.0724999999999998 L 10.054499267578125 0.00749999999999984 L 10.346999267578125 0.00749999999999984 L 10.346999267578125 0.40049999999999975 L 10.703999267578125 0.40049999999999975 L 10.703999267578125 0.00749999999999984 L 10.996499267578125 0.00749999999999984 M 11.525962646484375 1.0724999999999998 L 11.525962646484375 0.00749999999999984 L 11.935462646484375 0.00749999999999984 Q 12.112462646484376 0.00749999999999984 12.231712646484375 0.07874999999999976 Q 12.350962646484374 0.1499999999999998 12.411712646484375 0.2707499999999998 Q 12.472462646484376 0.39149999999999974 12.472462646484376 0.5384999999999998 Q 12.472462646484376 0.7004999999999998 12.405712646484375 0.8204999999999998 Q 12.338962646484376 0.9404999999999998 12.218212646484375 1.0064999999999997 Q 12.097462646484376 1.0724999999999998 11.935462646484375 1.0724999999999998 L 11.525962646484375 1.0724999999999998 M 12.175462646484375 0.5384999999999998 Q 12.175462646484375 0.45599999999999974 12.146962646484376 0.3937499999999998 Q 12.118462646484375 0.3314999999999998 12.064462646484376 0.2969999999999998 Q 12.010462646484376 0.26249999999999973 11.935462646484375 0.26249999999999973 L 11.818462646484376 0.26249999999999973 L 11.818462646484376 0.8174999999999998 L 11.935462646484375 0.8174999999999998 Q 12.011962646484376 0.8174999999999998 12.065212646484376 0.7814999999999999 Q 12.118462646484375 0.7454999999999998 12.146962646484376 0.6817499999999999 Q 12.175462646484375 0.6179999999999998 12.175462646484375 0.5384999999999998 M 12.6044677734375 1.0724999999999998 L 12.6044677734375 0.00749999999999984 L 12.8969677734375 0.00749999999999984 L 12.8969677734375 1.0724999999999998 L 12.6044677734375 1.0724999999999998 M 13.54499267578125 1.0799999999999998 Q 13.44149267578125 1.0799999999999998 13.34774267578125 1.0432499999999998 Q 13.25399267578125 1.0064999999999997 13.18199267578125 0.9352499999999998 Q 13.109992675781251 0.8639999999999998 13.06874267578125 0.7627499999999998 Q 13.02749267578125 0.6614999999999998 13.02749267578125 0.5309999999999998 Q 13.02749267578125 0.41849999999999976 13.06949267578125 0.3224999999999998 Q 13.11149267578125 0.2264999999999998 13.18574267578125 0.15374999999999972 Q 13.25999267578125 0.08099999999999974 13.35899267578125 0.04049999999999976 Q 13.45799267578125 -2.220446049250313e-16 13.573492675781251 -2.220446049250313e-16 Q 13.717492675781251 -2.220446049250313e-16 13.83449267578125 0.062249999999999694 Q 13.951492675781251 0.12449999999999972 14.00849267578125 0.23249999999999982 L 13.79099267578125 0.3989999999999998 Q 13.759492675781251 0.33599999999999974 13.69649267578125 0.29774999999999974 Q 13.63349267578125 0.25949999999999973 13.562992675781251 0.25949999999999973 Q 13.51049267578125 0.25949999999999973 13.46699267578125 0.28049999999999975 Q 13.423492675781251 0.30149999999999977 13.39124267578125 0.33899999999999975 Q 13.35899267578125 0.3764999999999997 13.341742675781251 0.4282499999999998 Q 13.32449267578125 0.47999999999999976 13.32449267578125 0.5414999999999998 Q 13.32449267578125 0.6044999999999998 13.342492675781251 0.6554999999999997 Q 13.36049267578125 0.7064999999999998 13.39274267578125 0.7432499999999997 Q 13.424992675781251 0.7799999999999998 13.469992675781251 0.8002499999999998 Q 13.51499267578125 0.8204999999999998 13.570492675781251 0.8204999999999998 Q 13.64099267578125 0.8204999999999998 13.705492675781251 0.7852499999999998 Q 13.76999267578125 0.7499999999999998 13.82249267578125 0.6854999999999998 L 13.82249267578125 0.9704999999999998 Q 13.70249267578125 1.0799999999999998 13.54499267578125 1.0799999999999998 M 13.807492675781251 0.7154999999999998 L 13.610992675781251 0.7154999999999998 L 13.610992675781251 0.5054999999999997 L 14.04899267578125 0.5054999999999997 L 14.04899267578125 1.0724999999999998 L 13.807492675781251 1.0724999999999998 L 13.807492675781251 0.7154999999999998 M 14.19751318359375 1.0724999999999998 L 14.19751318359375 0.00749999999999984 L 14.490013183593751 0.00749999999999984 L 14.490013183593751 1.0724999999999998 L 14.19751318359375 1.0724999999999998 M 15.5070380859375 0.26249999999999973 L 15.201038085937501 0.26249999999999973 L 15.201038085937501 1.0724999999999998 L 14.9085380859375 1.0724999999999998 L 14.9085380859375 0.26249999999999973 L 14.601038085937502 0.26249999999999973 L 14.601038085937502 0.00749999999999984 L 15.5070380859375 0.00749999999999984 L 15.5070380859375 0.26249999999999973 M 15.766569580078126 0.00749999999999984 L 16.093569580078125 0.00749999999999984 L 16.432569580078127 1.0724999999999998 L 16.135569580078126 1.0724999999999998 L 16.071069580078127 0.8639999999999998 L 15.787569580078125 0.8639999999999998 L 15.724569580078127 1.0724999999999998 L 15.426069580078126 1.0724999999999998 L 15.766569580078126 0.00749999999999984 M 16.024569580078126 0.6689999999999998 L 15.930069580078126 0.2939999999999998 L 15.831069580078125 0.6689999999999998 L 16.024569580078126 0.6689999999999998 M 16.525557861328124 1.0724999999999998 L 16.525557861328124 0.00749999999999984 L 16.818057861328125 0.00749999999999984 L 16.818057861328125 0.8174999999999998 L 17.301057861328125 0.8174999999999998 L 17.301057861328125 1.0724999999999998 L 16.525557861328124 1.0724999999999998" fill="#1c3423" fill-rule="nonzero"></path></g><g></g></g><defs><clipPath id="SvgjsClipPath1002"><path d=" M 1.1596566950001934 -8.635793153083391 h 14.992277430312113 v 8.385793153083391 h -14.992277430312113 Z"></path></clipPath><clipPath id="SvgjsClipPath10007e8ac008-e935-4daf-beca-5206ceb5340b"><path d=" M 1.1596566950001934 -8.635793153083391 L 16.151934125312305 -8.635793153083391 L 16.151934125312305 -0.25 L 1.1596566950001934 -0.25 Z"></path></clipPath></defs></svg>